<mxfile host="Electron" agent="Mozilla/5.0 (Windows NT 10.0; Win64; x64) AppleWebKit/537.36 (KHTML, like Gecko) draw.io/24.7.17 Chrome/128.0.6613.36 Electron/32.0.1 Safari/537.36" version="24.7.17">
  <diagram name="Página-1" id="iSGD8QViTFohNAxSWs4u">
    <mxGraphModel dx="1927" dy="665" grid="1" gridSize="10" guides="1" tooltips="1" connect="1" arrows="1" fold="1" page="1" pageScale="1" pageWidth="827" pageHeight="1169" math="0" shadow="0">
      <root>
        <mxCell id="0" />
        <mxCell id="1" parent="0" />
        <mxCell id="8L31Qlgc-sHJx_xcSrj3-8" style="edgeStyle=orthogonalEdgeStyle;rounded=0;orthogonalLoop=1;jettySize=auto;html=1;" edge="1" parent="1" source="r9yE0SVn6PBObXSp9FQb-1" target="8L31Qlgc-sHJx_xcSrj3-6">
          <mxGeometry relative="1" as="geometry" />
        </mxCell>
        <mxCell id="r9yE0SVn6PBObXSp9FQb-1" value="Persona" style="rounded=0;whiteSpace=wrap;html=1;" parent="1" vertex="1">
          <mxGeometry x="354" y="80" width="120" height="60" as="geometry" />
        </mxCell>
        <mxCell id="r9yE0SVn6PBObXSp9FQb-6" style="edgeStyle=orthogonalEdgeStyle;rounded=0;orthogonalLoop=1;jettySize=auto;html=1;" parent="1" source="r9yE0SVn6PBObXSp9FQb-2" target="r9yE0SVn6PBObXSp9FQb-1" edge="1">
          <mxGeometry relative="1" as="geometry" />
        </mxCell>
        <mxCell id="8L31Qlgc-sHJx_xcSrj3-54" style="edgeStyle=orthogonalEdgeStyle;rounded=0;orthogonalLoop=1;jettySize=auto;html=1;" edge="1" parent="1" source="r9yE0SVn6PBObXSp9FQb-2" target="8L31Qlgc-sHJx_xcSrj3-51">
          <mxGeometry relative="1" as="geometry">
            <Array as="points">
              <mxPoint x="520" y="270" />
              <mxPoint x="520" y="270" />
            </Array>
          </mxGeometry>
        </mxCell>
        <mxCell id="8L31Qlgc-sHJx_xcSrj3-55" style="edgeStyle=orthogonalEdgeStyle;rounded=0;orthogonalLoop=1;jettySize=auto;html=1;" edge="1" parent="1" source="r9yE0SVn6PBObXSp9FQb-2" target="8L31Qlgc-sHJx_xcSrj3-21">
          <mxGeometry relative="1" as="geometry" />
        </mxCell>
        <mxCell id="r9yE0SVn6PBObXSp9FQb-2" value="Cliente" style="rounded=0;whiteSpace=wrap;html=1;" parent="1" vertex="1">
          <mxGeometry x="474" y="200" width="120" height="60" as="geometry" />
        </mxCell>
        <mxCell id="r9yE0SVn6PBObXSp9FQb-4" style="edgeStyle=orthogonalEdgeStyle;rounded=0;orthogonalLoop=1;jettySize=auto;html=1;" parent="1" source="r9yE0SVn6PBObXSp9FQb-3" target="r9yE0SVn6PBObXSp9FQb-1" edge="1">
          <mxGeometry relative="1" as="geometry" />
        </mxCell>
        <mxCell id="8L31Qlgc-sHJx_xcSrj3-13" value="" style="edgeStyle=orthogonalEdgeStyle;rounded=0;orthogonalLoop=1;jettySize=auto;html=1;" edge="1" parent="1" source="r9yE0SVn6PBObXSp9FQb-3" target="8L31Qlgc-sHJx_xcSrj3-12">
          <mxGeometry relative="1" as="geometry" />
        </mxCell>
        <mxCell id="8L31Qlgc-sHJx_xcSrj3-26" value="" style="edgeStyle=orthogonalEdgeStyle;rounded=0;orthogonalLoop=1;jettySize=auto;html=1;" edge="1" parent="1" source="r9yE0SVn6PBObXSp9FQb-3" target="8L31Qlgc-sHJx_xcSrj3-25">
          <mxGeometry relative="1" as="geometry">
            <Array as="points">
              <mxPoint x="260" y="320" />
              <mxPoint x="260" y="320" />
            </Array>
          </mxGeometry>
        </mxCell>
        <mxCell id="8L31Qlgc-sHJx_xcSrj3-29" value="" style="edgeStyle=orthogonalEdgeStyle;rounded=0;orthogonalLoop=1;jettySize=auto;html=1;" edge="1" parent="1" source="r9yE0SVn6PBObXSp9FQb-3" target="8L31Qlgc-sHJx_xcSrj3-28">
          <mxGeometry relative="1" as="geometry">
            <Array as="points">
              <mxPoint x="314" y="280" />
              <mxPoint x="314" y="280" />
            </Array>
          </mxGeometry>
        </mxCell>
        <mxCell id="r9yE0SVn6PBObXSp9FQb-3" value="Empleado" style="rounded=0;whiteSpace=wrap;html=1;" parent="1" vertex="1">
          <mxGeometry x="234" y="200" width="120" height="60" as="geometry" />
        </mxCell>
        <mxCell id="8L31Qlgc-sHJx_xcSrj3-2" value="" style="shape=waypoint;sketch=0;size=6;pointerEvents=1;points=[];fillColor=none;resizable=0;rotatable=0;perimeter=centerPerimeter;snapToPoint=1;" vertex="1" parent="1">
          <mxGeometry x="484" y="80" width="20" height="20" as="geometry" />
        </mxCell>
        <mxCell id="8L31Qlgc-sHJx_xcSrj3-3" style="edgeStyle=orthogonalEdgeStyle;rounded=0;orthogonalLoop=1;jettySize=auto;html=1;entryX=0.217;entryY=0.9;entryDx=0;entryDy=0;entryPerimeter=0;endArrow=none;endFill=0;" edge="1" target="8L31Qlgc-sHJx_xcSrj3-2" parent="1">
          <mxGeometry relative="1" as="geometry">
            <mxPoint x="474" y="90" as="sourcePoint" />
            <Array as="points">
              <mxPoint x="484" y="90" />
              <mxPoint x="484" y="90" />
            </Array>
          </mxGeometry>
        </mxCell>
        <mxCell id="8L31Qlgc-sHJx_xcSrj3-4" value="DNI" style="text;html=1;align=center;verticalAlign=middle;resizable=0;points=[];autosize=1;strokeColor=none;fillColor=none;" vertex="1" parent="1">
          <mxGeometry x="490" y="75" width="40" height="30" as="geometry" />
        </mxCell>
        <mxCell id="8L31Qlgc-sHJx_xcSrj3-5" value="o nombre&lt;div&gt;o apellido&lt;/div&gt;" style="text;html=1;align=left;verticalAlign=middle;resizable=0;points=[];autosize=1;strokeColor=none;fillColor=none;" vertex="1" parent="1">
          <mxGeometry x="474" y="100" width="70" height="40" as="geometry" />
        </mxCell>
        <mxCell id="8L31Qlgc-sHJx_xcSrj3-6" value="Direccion" style="ellipse;whiteSpace=wrap;html=1;" vertex="1" parent="1">
          <mxGeometry x="200" y="50" width="70" height="50" as="geometry" />
        </mxCell>
        <mxCell id="8L31Qlgc-sHJx_xcSrj3-7" value="N° o&lt;div&gt;Calle o&lt;/div&gt;&lt;div&gt;Piso (0,1) o&lt;/div&gt;&lt;div&gt;Depto (0,1) o&lt;/div&gt;" style="text;html=1;align=right;verticalAlign=middle;resizable=0;points=[];autosize=1;strokeColor=none;fillColor=none;" vertex="1" parent="1">
          <mxGeometry x="100" y="30" width="90" height="70" as="geometry" />
        </mxCell>
        <mxCell id="8L31Qlgc-sHJx_xcSrj3-9" value="" style="shape=waypoint;sketch=0;size=6;pointerEvents=1;points=[];fillColor=none;resizable=0;rotatable=0;perimeter=centerPerimeter;snapToPoint=1;" vertex="1" parent="1">
          <mxGeometry x="203.99" y="200" width="20" height="20" as="geometry" />
        </mxCell>
        <mxCell id="8L31Qlgc-sHJx_xcSrj3-10" style="edgeStyle=orthogonalEdgeStyle;rounded=0;orthogonalLoop=1;jettySize=auto;html=1;entryX=0;entryY=0.323;entryDx=0;entryDy=0;entryPerimeter=0;endArrow=none;endFill=0;" edge="1" source="8L31Qlgc-sHJx_xcSrj3-9" parent="1">
          <mxGeometry relative="1" as="geometry">
            <mxPoint x="233.99" y="209" as="targetPoint" />
          </mxGeometry>
        </mxCell>
        <mxCell id="8L31Qlgc-sHJx_xcSrj3-11" value="Legajo" style="text;html=1;align=center;verticalAlign=middle;resizable=0;points=[];autosize=1;strokeColor=none;fillColor=none;" vertex="1" parent="1">
          <mxGeometry x="160" y="194" width="60" height="30" as="geometry" />
        </mxCell>
        <mxCell id="8L31Qlgc-sHJx_xcSrj3-15" value="" style="edgeStyle=orthogonalEdgeStyle;rounded=0;orthogonalLoop=1;jettySize=auto;html=1;" edge="1" parent="1" source="8L31Qlgc-sHJx_xcSrj3-12" target="8L31Qlgc-sHJx_xcSrj3-14">
          <mxGeometry relative="1" as="geometry" />
        </mxCell>
        <mxCell id="8L31Qlgc-sHJx_xcSrj3-12" value="trabaja" style="rhombus;whiteSpace=wrap;html=1;rounded=0;" vertex="1" parent="1">
          <mxGeometry x="100" y="320" width="80" height="80" as="geometry" />
        </mxCell>
        <mxCell id="8L31Qlgc-sHJx_xcSrj3-14" value="AREA" style="whiteSpace=wrap;html=1;rounded=0;" vertex="1" parent="1">
          <mxGeometry x="80" y="470" width="120" height="60" as="geometry" />
        </mxCell>
        <mxCell id="8L31Qlgc-sHJx_xcSrj3-18" value="(T,E)" style="text;html=1;align=center;verticalAlign=middle;resizable=0;points=[];autosize=1;strokeColor=none;fillColor=none;" vertex="1" parent="1">
          <mxGeometry x="415" y="138" width="50" height="30" as="geometry" />
        </mxCell>
        <mxCell id="8L31Qlgc-sHJx_xcSrj3-56" style="edgeStyle=orthogonalEdgeStyle;rounded=0;orthogonalLoop=1;jettySize=auto;html=1;" edge="1" parent="1" source="8L31Qlgc-sHJx_xcSrj3-21" target="8L31Qlgc-sHJx_xcSrj3-23">
          <mxGeometry relative="1" as="geometry">
            <Array as="points">
              <mxPoint x="614" y="445" />
              <mxPoint x="570" y="445" />
            </Array>
          </mxGeometry>
        </mxCell>
        <mxCell id="8L31Qlgc-sHJx_xcSrj3-21" value="compra" style="rhombus;whiteSpace=wrap;html=1;rounded=0;" vertex="1" parent="1">
          <mxGeometry x="581" y="330" width="66" height="60" as="geometry" />
        </mxCell>
        <mxCell id="8L31Qlgc-sHJx_xcSrj3-33" value="" style="edgeStyle=orthogonalEdgeStyle;rounded=0;orthogonalLoop=1;jettySize=auto;html=1;" edge="1" parent="1" source="8L31Qlgc-sHJx_xcSrj3-23" target="8L31Qlgc-sHJx_xcSrj3-32">
          <mxGeometry relative="1" as="geometry" />
        </mxCell>
        <mxCell id="8L31Qlgc-sHJx_xcSrj3-38" style="edgeStyle=orthogonalEdgeStyle;rounded=0;orthogonalLoop=1;jettySize=auto;html=1;" edge="1" parent="1" source="8L31Qlgc-sHJx_xcSrj3-23" target="8L31Qlgc-sHJx_xcSrj3-36">
          <mxGeometry relative="1" as="geometry" />
        </mxCell>
        <mxCell id="8L31Qlgc-sHJx_xcSrj3-23" value="Inmueble" style="whiteSpace=wrap;html=1;rounded=0;" vertex="1" parent="1">
          <mxGeometry x="474" y="500" width="120" height="60" as="geometry" />
        </mxCell>
        <mxCell id="8L31Qlgc-sHJx_xcSrj3-27" style="edgeStyle=orthogonalEdgeStyle;rounded=0;orthogonalLoop=1;jettySize=auto;html=1;entryX=0;entryY=0.5;entryDx=0;entryDy=0;" edge="1" parent="1" source="8L31Qlgc-sHJx_xcSrj3-25" target="8L31Qlgc-sHJx_xcSrj3-23">
          <mxGeometry relative="1" as="geometry" />
        </mxCell>
        <mxCell id="8L31Qlgc-sHJx_xcSrj3-58" style="edgeStyle=orthogonalEdgeStyle;rounded=0;orthogonalLoop=1;jettySize=auto;html=1;endArrow=oval;endFill=0;" edge="1" parent="1" source="8L31Qlgc-sHJx_xcSrj3-25">
          <mxGeometry relative="1" as="geometry">
            <mxPoint x="260" y="590" as="targetPoint" />
          </mxGeometry>
        </mxCell>
        <mxCell id="8L31Qlgc-sHJx_xcSrj3-25" value="alquila" style="rhombus;whiteSpace=wrap;html=1;rounded=0;" vertex="1" parent="1">
          <mxGeometry x="234" y="505" width="52" height="50" as="geometry" />
        </mxCell>
        <mxCell id="8L31Qlgc-sHJx_xcSrj3-31" style="edgeStyle=orthogonalEdgeStyle;rounded=0;orthogonalLoop=1;jettySize=auto;html=1;" edge="1" parent="1" source="8L31Qlgc-sHJx_xcSrj3-28" target="8L31Qlgc-sHJx_xcSrj3-23">
          <mxGeometry relative="1" as="geometry">
            <Array as="points">
              <mxPoint x="314" y="510" />
            </Array>
          </mxGeometry>
        </mxCell>
        <mxCell id="8L31Qlgc-sHJx_xcSrj3-66" style="edgeStyle=orthogonalEdgeStyle;rounded=0;orthogonalLoop=1;jettySize=auto;html=1;endArrow=oval;endFill=0;" edge="1" parent="1">
          <mxGeometry relative="1" as="geometry">
            <mxPoint x="355" y="390" as="targetPoint" />
            <mxPoint x="335" y="390" as="sourcePoint" />
          </mxGeometry>
        </mxCell>
        <mxCell id="8L31Qlgc-sHJx_xcSrj3-28" value="vende" style="rhombus;whiteSpace=wrap;html=1;rounded=0;" vertex="1" parent="1">
          <mxGeometry x="288" y="360" width="52" height="50" as="geometry" />
        </mxCell>
        <mxCell id="8L31Qlgc-sHJx_xcSrj3-35" value="" style="edgeStyle=orthogonalEdgeStyle;rounded=0;orthogonalLoop=1;jettySize=auto;html=1;" edge="1" parent="1" source="8L31Qlgc-sHJx_xcSrj3-32" target="8L31Qlgc-sHJx_xcSrj3-34">
          <mxGeometry relative="1" as="geometry" />
        </mxCell>
        <mxCell id="8L31Qlgc-sHJx_xcSrj3-32" value="tiene" style="rhombus;whiteSpace=wrap;html=1;rounded=0;" vertex="1" parent="1">
          <mxGeometry x="730" y="490" width="80" height="80" as="geometry" />
        </mxCell>
        <mxCell id="8L31Qlgc-sHJx_xcSrj3-34" value="TIpoInmueble" style="whiteSpace=wrap;html=1;rounded=0;" vertex="1" parent="1">
          <mxGeometry x="710" y="340" width="120" height="60" as="geometry" />
        </mxCell>
        <mxCell id="8L31Qlgc-sHJx_xcSrj3-36" value="Direccion" style="ellipse;whiteSpace=wrap;html=1;" vertex="1" parent="1">
          <mxGeometry x="525" y="670" width="70" height="50" as="geometry" />
        </mxCell>
        <mxCell id="8L31Qlgc-sHJx_xcSrj3-37" value="N° o&lt;div&gt;Calle o&lt;/div&gt;&lt;div&gt;Piso (0,1) o&lt;/div&gt;&lt;div&gt;Depto (0,1) o&lt;/div&gt;" style="text;html=1;align=right;verticalAlign=middle;resizable=0;points=[];autosize=1;strokeColor=none;fillColor=none;" vertex="1" parent="1">
          <mxGeometry x="425" y="650" width="90" height="70" as="geometry" />
        </mxCell>
        <mxCell id="8L31Qlgc-sHJx_xcSrj3-39" value="" style="shape=waypoint;sketch=0;size=6;pointerEvents=1;points=[];fillColor=none;resizable=0;rotatable=0;perimeter=centerPerimeter;snapToPoint=1;" vertex="1" parent="1">
          <mxGeometry x="604" y="500" width="20" height="20" as="geometry" />
        </mxCell>
        <mxCell id="8L31Qlgc-sHJx_xcSrj3-40" style="edgeStyle=orthogonalEdgeStyle;rounded=0;orthogonalLoop=1;jettySize=auto;html=1;entryX=0.217;entryY=0.9;entryDx=0;entryDy=0;entryPerimeter=0;endArrow=none;endFill=0;" edge="1" target="8L31Qlgc-sHJx_xcSrj3-39" parent="1">
          <mxGeometry relative="1" as="geometry">
            <mxPoint x="594" y="510" as="sourcePoint" />
            <Array as="points">
              <mxPoint x="604" y="510" />
              <mxPoint x="604" y="510" />
            </Array>
          </mxGeometry>
        </mxCell>
        <mxCell id="8L31Qlgc-sHJx_xcSrj3-41" value="codigoI" style="text;html=1;align=center;verticalAlign=middle;resizable=0;points=[];autosize=1;strokeColor=none;fillColor=none;" vertex="1" parent="1">
          <mxGeometry x="608" y="494" width="60" height="30" as="geometry" />
        </mxCell>
        <mxCell id="8L31Qlgc-sHJx_xcSrj3-43" value="&lt;h5&gt;&lt;span style=&quot;font-weight: normal;&quot;&gt;o ambientes&lt;br&gt;o balcon (0,1)&lt;br&gt;o lavadero (0,1)&lt;br&gt;o baños&lt;/span&gt;&lt;/h5&gt;&lt;div&gt;&lt;br&gt;&lt;/div&gt;" style="text;html=1;align=left;verticalAlign=middle;resizable=0;points=[];autosize=1;strokeColor=none;fillColor=none;" vertex="1" parent="1">
          <mxGeometry x="595" y="505" width="90" height="110" as="geometry" />
        </mxCell>
        <mxCell id="8L31Qlgc-sHJx_xcSrj3-44" value="paraAlqular(0,1) o&lt;div&gt;paraVender(0,1) o&lt;/div&gt;" style="text;html=1;align=right;verticalAlign=top;resizable=0;points=[];autosize=1;strokeColor=none;fillColor=none;horizontal=1;rotation=37;" vertex="1" parent="1">
          <mxGeometry x="377" y="417" width="120" height="40" as="geometry" />
        </mxCell>
        <mxCell id="8L31Qlgc-sHJx_xcSrj3-45" value="" style="endArrow=none;html=1;rounded=0;" edge="1" parent="1">
          <mxGeometry width="50" height="50" relative="1" as="geometry">
            <mxPoint x="478" y="500" as="sourcePoint" />
            <mxPoint x="478" y="480" as="targetPoint" />
          </mxGeometry>
        </mxCell>
        <mxCell id="8L31Qlgc-sHJx_xcSrj3-46" value="" style="endArrow=none;html=1;rounded=0;" edge="1" parent="1">
          <mxGeometry width="50" height="50" relative="1" as="geometry">
            <mxPoint x="484" y="500" as="sourcePoint" />
            <mxPoint x="484" y="468" as="targetPoint" />
          </mxGeometry>
        </mxCell>
        <mxCell id="8L31Qlgc-sHJx_xcSrj3-49" value="o sexo&lt;div&gt;o nacinalidad&lt;/div&gt;&lt;div&gt;o pasaporte (0,1)&lt;/div&gt;&lt;div&gt;&lt;br&gt;&lt;/div&gt;" style="text;html=1;align=left;verticalAlign=middle;resizable=0;points=[];autosize=1;strokeColor=none;fillColor=none;" vertex="1" parent="1">
          <mxGeometry x="595" y="200" width="110" height="70" as="geometry" />
        </mxCell>
        <mxCell id="8L31Qlgc-sHJx_xcSrj3-53" style="edgeStyle=orthogonalEdgeStyle;rounded=0;orthogonalLoop=1;jettySize=auto;html=1;exitX=0.5;exitY=1;exitDx=0;exitDy=0;" edge="1" parent="1" source="8L31Qlgc-sHJx_xcSrj3-51" target="8L31Qlgc-sHJx_xcSrj3-23">
          <mxGeometry relative="1" as="geometry">
            <Array as="points">
              <mxPoint x="520" y="390" />
            </Array>
          </mxGeometry>
        </mxCell>
        <mxCell id="8L31Qlgc-sHJx_xcSrj3-51" value="contiene" style="rhombus;whiteSpace=wrap;html=1;rounded=0;" vertex="1" parent="1">
          <mxGeometry x="490" y="330" width="60" height="60" as="geometry" />
        </mxCell>
        <mxCell id="8L31Qlgc-sHJx_xcSrj3-60" style="edgeStyle=orthogonalEdgeStyle;rounded=0;orthogonalLoop=1;jettySize=auto;html=1;endArrow=oval;endFill=0;" edge="1" parent="1">
          <mxGeometry relative="1" as="geometry">
            <mxPoint x="234.9" y="565" as="targetPoint" />
            <mxPoint x="234.9" y="530" as="sourcePoint" />
          </mxGeometry>
        </mxCell>
        <mxCell id="8L31Qlgc-sHJx_xcSrj3-62" value="fecha&lt;div&gt;Inicio&lt;/div&gt;" style="text;html=1;align=center;verticalAlign=middle;resizable=0;points=[];autosize=1;strokeColor=none;fillColor=none;" vertex="1" parent="1">
          <mxGeometry x="203.99" y="565" width="50" height="40" as="geometry" />
        </mxCell>
        <mxCell id="8L31Qlgc-sHJx_xcSrj3-63" value="fecha&lt;div&gt;fin&lt;/div&gt;" style="text;html=1;align=center;verticalAlign=middle;resizable=0;points=[];autosize=1;strokeColor=none;fillColor=none;" vertex="1" parent="1">
          <mxGeometry x="235" y="590" width="50" height="40" as="geometry" />
        </mxCell>
        <mxCell id="8L31Qlgc-sHJx_xcSrj3-67" style="edgeStyle=orthogonalEdgeStyle;rounded=0;orthogonalLoop=1;jettySize=auto;html=1;endArrow=oval;endFill=0;" edge="1" parent="1">
          <mxGeometry relative="1" as="geometry">
            <mxPoint x="339" y="365" as="targetPoint" />
            <mxPoint x="319" y="365" as="sourcePoint" />
          </mxGeometry>
        </mxCell>
        <mxCell id="8L31Qlgc-sHJx_xcSrj3-68" style="edgeStyle=orthogonalEdgeStyle;rounded=0;orthogonalLoop=1;jettySize=auto;html=1;endArrow=oval;endFill=0;" edge="1" parent="1">
          <mxGeometry relative="1" as="geometry">
            <mxPoint x="341" y="403" as="targetPoint" />
            <mxPoint x="321" y="403" as="sourcePoint" />
          </mxGeometry>
        </mxCell>
        <mxCell id="8L31Qlgc-sHJx_xcSrj3-70" value="fecha" style="text;html=1;align=center;verticalAlign=middle;resizable=0;points=[];autosize=1;strokeColor=none;fillColor=none;" vertex="1" parent="1">
          <mxGeometry x="335" y="350" width="50" height="30" as="geometry" />
        </mxCell>
        <mxCell id="8L31Qlgc-sHJx_xcSrj3-71" value="hora" style="text;html=1;align=center;verticalAlign=middle;resizable=0;points=[];autosize=1;strokeColor=none;fillColor=none;" vertex="1" parent="1">
          <mxGeometry x="348" y="375" width="50" height="30" as="geometry" />
        </mxCell>
        <mxCell id="8L31Qlgc-sHJx_xcSrj3-72" value="comision" style="text;html=1;align=center;verticalAlign=middle;resizable=0;points=[];autosize=1;strokeColor=none;fillColor=none;" vertex="1" parent="1">
          <mxGeometry x="334" y="387" width="70" height="30" as="geometry" />
        </mxCell>
        <mxCell id="8L31Qlgc-sHJx_xcSrj3-73" style="edgeStyle=orthogonalEdgeStyle;rounded=0;orthogonalLoop=1;jettySize=auto;html=1;endArrow=oval;endFill=0;" edge="1" parent="1">
          <mxGeometry relative="1" as="geometry">
            <mxPoint x="170" y="330" as="targetPoint" />
            <mxPoint x="150" y="330" as="sourcePoint" />
          </mxGeometry>
        </mxCell>
        <mxCell id="8L31Qlgc-sHJx_xcSrj3-74" style="edgeStyle=orthogonalEdgeStyle;rounded=0;orthogonalLoop=1;jettySize=auto;html=1;endArrow=oval;endFill=0;" edge="1" parent="1">
          <mxGeometry relative="1" as="geometry">
            <mxPoint x="170" y="390" as="targetPoint" />
            <mxPoint x="150" y="390" as="sourcePoint" />
          </mxGeometry>
        </mxCell>
        <mxCell id="8L31Qlgc-sHJx_xcSrj3-75" value="desde" style="text;html=1;align=center;verticalAlign=middle;resizable=0;points=[];autosize=1;strokeColor=none;fillColor=none;" vertex="1" parent="1">
          <mxGeometry x="160" y="313" width="60" height="30" as="geometry" />
        </mxCell>
        <mxCell id="8L31Qlgc-sHJx_xcSrj3-76" value="hasta(0,1)" style="text;html=1;align=center;verticalAlign=middle;resizable=0;points=[];autosize=1;strokeColor=none;fillColor=none;" vertex="1" parent="1">
          <mxGeometry x="161" y="374" width="80" height="30" as="geometry" />
        </mxCell>
        <mxCell id="8L31Qlgc-sHJx_xcSrj3-77" value="" style="shape=waypoint;sketch=0;size=6;pointerEvents=1;points=[];fillColor=none;resizable=0;rotatable=0;perimeter=centerPerimeter;snapToPoint=1;" vertex="1" parent="1">
          <mxGeometry x="50" y="470" width="20" height="20" as="geometry" />
        </mxCell>
        <mxCell id="8L31Qlgc-sHJx_xcSrj3-78" style="edgeStyle=orthogonalEdgeStyle;rounded=0;orthogonalLoop=1;jettySize=auto;html=1;entryX=0;entryY=0.323;entryDx=0;entryDy=0;entryPerimeter=0;endArrow=none;endFill=0;" edge="1" source="8L31Qlgc-sHJx_xcSrj3-77" parent="1">
          <mxGeometry relative="1" as="geometry">
            <mxPoint x="80" y="479" as="targetPoint" />
          </mxGeometry>
        </mxCell>
        <mxCell id="8L31Qlgc-sHJx_xcSrj3-79" value="codigo" style="text;html=1;align=center;verticalAlign=middle;resizable=0;points=[];autosize=1;strokeColor=none;fillColor=none;" vertex="1" parent="1">
          <mxGeometry x="7" y="463" width="60" height="30" as="geometry" />
        </mxCell>
        <mxCell id="8L31Qlgc-sHJx_xcSrj3-80" value="descrip o&lt;div&gt;telefono (1,N) o&lt;/div&gt;" style="text;html=1;align=right;verticalAlign=middle;resizable=0;points=[];autosize=1;strokeColor=none;fillColor=none;" vertex="1" parent="1">
          <mxGeometry x="-35" y="483" width="110" height="40" as="geometry" />
        </mxCell>
        <mxCell id="8L31Qlgc-sHJx_xcSrj3-81" value="(1,N)" style="text;html=1;align=center;verticalAlign=middle;resizable=0;points=[];autosize=1;strokeColor=none;fillColor=none;" vertex="1" parent="1">
          <mxGeometry x="175" y="238" width="50" height="30" as="geometry" />
        </mxCell>
        <mxCell id="8L31Qlgc-sHJx_xcSrj3-82" value="(1,N)" style="text;html=1;align=center;verticalAlign=middle;resizable=0;points=[];autosize=1;strokeColor=none;fillColor=none;" vertex="1" parent="1">
          <mxGeometry x="145" y="428" width="50" height="30" as="geometry" />
        </mxCell>
        <mxCell id="8L31Qlgc-sHJx_xcSrj3-83" value="(1,N)" style="text;html=1;align=center;verticalAlign=middle;resizable=0;points=[];autosize=1;strokeColor=none;fillColor=none;" vertex="1" parent="1">
          <mxGeometry x="255" y="258" width="50" height="30" as="geometry" />
        </mxCell>
        <mxCell id="8L31Qlgc-sHJx_xcSrj3-84" value="(1,1)" style="text;html=1;align=center;verticalAlign=middle;resizable=0;points=[];autosize=1;strokeColor=none;fillColor=none;" vertex="1" parent="1">
          <mxGeometry x="425" y="530" width="50" height="30" as="geometry" />
        </mxCell>
        <mxCell id="8L31Qlgc-sHJx_xcSrj3-85" value="(1,N)" style="text;html=1;align=center;verticalAlign=middle;resizable=0;points=[];autosize=1;strokeColor=none;fillColor=none;" vertex="1" parent="1">
          <mxGeometry x="315" y="258" width="50" height="30" as="geometry" />
        </mxCell>
        <mxCell id="8L31Qlgc-sHJx_xcSrj3-86" value="(1,1)" style="text;html=1;align=center;verticalAlign=middle;resizable=0;points=[];autosize=1;strokeColor=none;fillColor=none;" vertex="1" parent="1">
          <mxGeometry x="405" y="478" width="50" height="30" as="geometry" />
        </mxCell>
        <mxCell id="8L31Qlgc-sHJx_xcSrj3-87" value="(0,N)" style="text;html=1;align=center;verticalAlign=middle;resizable=0;points=[];autosize=1;strokeColor=none;fillColor=none;" vertex="1" parent="1">
          <mxGeometry x="475" y="258" width="50" height="30" as="geometry" />
        </mxCell>
        <mxCell id="8L31Qlgc-sHJx_xcSrj3-88" value="(1,1)" style="text;html=1;align=center;verticalAlign=middle;resizable=0;points=[];autosize=1;strokeColor=none;fillColor=none;" vertex="1" parent="1">
          <mxGeometry x="509" y="468" width="50" height="30" as="geometry" />
        </mxCell>
        <mxCell id="8L31Qlgc-sHJx_xcSrj3-89" value="(1,1)" style="text;html=1;align=center;verticalAlign=middle;resizable=0;points=[];autosize=1;strokeColor=none;fillColor=none;" vertex="1" parent="1">
          <mxGeometry x="566" y="468" width="50" height="30" as="geometry" />
        </mxCell>
        <mxCell id="8L31Qlgc-sHJx_xcSrj3-90" value="(1,N)" style="text;html=1;align=center;verticalAlign=middle;resizable=0;points=[];autosize=1;strokeColor=none;fillColor=none;" vertex="1" parent="1">
          <mxGeometry x="531" y="258" width="50" height="30" as="geometry" />
        </mxCell>
        <mxCell id="8L31Qlgc-sHJx_xcSrj3-91" value="(1,1)" style="text;html=1;align=center;verticalAlign=middle;resizable=0;points=[];autosize=1;strokeColor=none;fillColor=none;" vertex="1" parent="1">
          <mxGeometry x="596" y="506" width="50" height="30" as="geometry" />
        </mxCell>
        <mxCell id="8L31Qlgc-sHJx_xcSrj3-92" value="(1,N)" style="text;html=1;align=center;verticalAlign=middle;resizable=0;points=[];autosize=1;strokeColor=none;fillColor=none;" vertex="1" parent="1">
          <mxGeometry x="715" y="408" width="50" height="30" as="geometry" />
        </mxCell>
        <mxCell id="8L31Qlgc-sHJx_xcSrj3-94" style="edgeStyle=orthogonalEdgeStyle;rounded=0;orthogonalLoop=1;jettySize=auto;html=1;endArrow=oval;endFill=0;" edge="1" parent="1">
          <mxGeometry relative="1" as="geometry">
            <mxPoint x="279.86" y="571" as="targetPoint" />
            <mxPoint x="279.86" y="536" as="sourcePoint" />
          </mxGeometry>
        </mxCell>
        <mxCell id="8L31Qlgc-sHJx_xcSrj3-95" value="precioAlquiler" style="text;html=1;align=center;verticalAlign=middle;resizable=0;points=[];autosize=1;strokeColor=none;fillColor=none;" vertex="1" parent="1">
          <mxGeometry x="264" y="570" width="100" height="30" as="geometry" />
        </mxCell>
        <mxCell id="8L31Qlgc-sHJx_xcSrj3-96" style="edgeStyle=orthogonalEdgeStyle;rounded=0;orthogonalLoop=1;jettySize=auto;html=1;endArrow=oval;endFill=0;" edge="1" parent="1">
          <mxGeometry relative="1" as="geometry">
            <mxPoint x="351" y="376" as="targetPoint" />
            <mxPoint x="331" y="376" as="sourcePoint" />
          </mxGeometry>
        </mxCell>
        <mxCell id="8L31Qlgc-sHJx_xcSrj3-97" value="precioVenta" style="text;html=1;align=center;verticalAlign=middle;resizable=0;points=[];autosize=1;strokeColor=none;fillColor=none;" vertex="1" parent="1">
          <mxGeometry x="342" y="361" width="90" height="30" as="geometry" />
        </mxCell>
      </root>
    </mxGraphModel>
  </diagram>
</mxfile>
